<?xml version="1.0" encoding="UTF-8"?>
<svg width="400pt" height="400pt" version="1.1" xmlns="http://www.w3.org/2000/svg" xmlns:xlink="http://www.w3.org/1999/xlink">
 <g>
  <path d="m277.89 344.7c-8.1719-2.5039-15.957-6.2109-22.848-11.297-6.3125-4.6719-13.266-11.035-14.133-19.316-0.83203-8.0625 4.2422-15.695 11.406-19.074 7.9414-3.7617 15.883-2.0898 23.844 0.49219 5.4922 1.7812 11.539 3.3477 17.141 1.0703 1.8906-0.76562 2.5938-1.7734 4.6602-1.2812 1.9805 0.46875 2.9648 2.1094 4.4414 3.4453 2.3086 2.1016 4.9453 3.9062 7.875 4.9883 6.3984 2.375 12.93 0.48047 19.336-0.78906 7.2852-1.4453 14.766-1.6172 22.117-0.50391 15.391 2.3398 35.777 11.266 39.66 28.012 0.50391 2.1992 3.9258 1.4648 3.4219-0.74219-3.4688-15.082-18.965-24.312-32.812-28.469-8.0625-2.418-16.559-3.3242-24.949-2.6484-8.3359 0.67969-17.609 5.1289-25.824 2.1211-4.5703-1.6719-6.8359-5.4453-10.555-8.1719-2.2852-1.6719-4.1797-0.90625-6.5508 0.20703-9.5391 4.4609-17.531-1.3672-27.094-2.6562-13.957-1.8906-29.465 7.3711-29.039 22.75 0.21875 7.6797 5.1953 14.098 10.828 18.879 8.2891 7.0312 18.102 11.824 28.68 14.219 0.82031 0.1875 1.2148-0.98438 0.39453-1.2344z"/>
  <path d="m275.39 345.98c5.3594 3.7305 11.516 6.5742 17.305 9.5938 5 2.6133 9.9414 5.3906 15.051 7.7773 9.5273 4.4531 19.512 4.3516 29.344 0.86328 10.543-3.7422 19.438-10.676 28.578-16.93 8.9258-6.1016 16.875-12.918 27.539-15.598 1.6836-0.42578 1.6172-3.2266-0.26172-3.1602-8.5859 0.29687-16.012 6.4961-22.641 11.332-9.2188 6.7266-18.672 14-28.961 18.988-10.512 5.0977-21.625 6.4648-32.453 1.5625-11.004-4.9766-21.383-11.91-32.781-15.957-0.92578-0.32422-1.4844 0.98828-0.71875 1.5273z"/>
  <path d="m366 303.33c-3.0625-9.7344-2.5469-19.336-0.99609-29.301 1.7188-11.016 4.4844-21.898 8.5547-32.289 4.2422-10.828 10.895-20.082 15.914-30.473 4.6484-9.6133 6.0469-21.316 16.746-26.238 1.6094-0.73438 0.6875-3.5117-1.0508-2.9648-10.258 3.2266-13.367 14.414-16.801 23.375-4.5508 11.844-12.457 22.07-17.172 33.918-4.4062 11.09-7.2852 22.75-9.0352 34.539-1.4531 9.832-2.6797 20.891 2.0117 30.066 0.49609 0.96484 2.168 0.45312 1.8281-0.63281z"/>
  <path d="m393.86 194.77c-3.3906 8.0156-1.4102 16.395 0.90625 24.422 2.8125 9.7109 4.2891 19.645 5.4375 29.684 1.2812 11.125-1.2031 20.934-4.5156 31.477-3.4141 10.871-8.0703 20.945-16.887 28.461-1.3789 1.1719 0.42578 3.0742 1.8359 2.0547 8.1797-5.9375 13.148-14.973 16.613-24.27 3.543-9.4844 7.0977-20.039 6.9688-30.273-0.13281-9.8438-1.8828-20.223-4.125-29.781-2.4297-10.305-7.625-20.574-4.9453-31.367 0.1875-0.85156-0.96094-1.1914-1.2891-0.40625z"/>
  <path d="m402.03 238.25c-2.2305-7.4922 2.582-13.387 6.4844-19.262 2.9961-4.5156 5.5352-9.5039 6.8047-14.809 2.0898-8.7617-0.4375-18.484-9.5039-21.875-1.9453-0.73438-2.9766 2.4492-0.97266 3.1055 13.32 4.332 7.9062 21.578 2.8125 30.109-4.2344 7.0781-11.035 14.547-7.0977 23.254 0.36719 0.80078 1.7344 0.34375 1.4727-0.52344z"/>
  <path d="m251.89 293.88c-1.0703-6.0703-2.0117-11.734-1.5859-17.949 0.4375-6.4219 1.7266-12.766 3.3242-18.988 3.3047-12.883 8.3672-25.242 14.133-37.211 0.76562-1.5859-1.5625-3.1172-2.3281-1.5078-6.1797 12.938-11.605 26.273-14.918 40.25-2.625 11.125-5.4141 25.168-0.46094 36.039 0.46875 1.0742 2.0234 0.44141 1.8359-0.63281z"/>
  <path d="m266.22 219.38c3.4688 9.2188-1.5742 17.531-4.6797 25.965-0.57031 1.543-1.4219 3.4688 0.29688 4.5938 0.99609 0.65625 2.582 0.10938 3.6641 0.25 3.7852 0.49219 5.3828 2.7227 6.9336 5.8281 3.3359 6.6172 5.4141 13.922 10.391 19.602 5.9609 6.793 14.996 10.586 17.785 19.797 0.60156 1.9805 3.6211 1.3906 3.1719-0.6875-1.6953-8.0391-8.793-12.621-14.625-17.633-7.7969-6.6836-9.8555-15.859-14.918-24.348-1.5195-2.5469-3.2266-4.5508-6.2227-5.25-0.85156-0.19531-4.8125-0.82031-4.2539 0.27344-0.51562-0.99609 2.6367-6.6836 3.0391-7.6797 2.7773-6.8906 5.0977-14.668 0.91797-21.469-0.59375-0.91797-1.8828-0.23828-1.5 0.75781z"/>
  <path d="m329.47 181.33c0.41406-2.1992 0.84375-4.3984 1.2578-6.5859 0.67969-0.054688 1.3672-0.10938 2.0469-0.16406 1.4102-0.023437 2.8008 0.16406 4.1875 0.40625 2.7109 0.48047 5.3164 1.3555 7.7773 2.6016 4.2656 2.1641 8.0273 5.25 11.18 8.8359 1.4648 1.6719 3.9805 4.1328 4.6484 6.2891 0.625 2.0234-0.64453 4.3438-1.1602 6.2578-0.92969 3.4219-1.5312 6.9336-1.8711 10.469-1.3906 14.242 2.2969 29.016 10.609 40.711 1.1602 1.6289 4.0156-0.29688 2.9102-1.9922-5.9492-9.1641-9.7031-19.293-10.402-30.266-0.35156-5.4023 0.03125-10.852 1.2344-16.133 0.94141-4.1016 3.1055-7.5898 0.74219-11.484-5.6016-9.2188-15.324-16.473-26.129-17.828-3.3242-0.41406-8.2266-0.77734-10.117 2.7031-1.5195 2.8008-0.40625 5.9297 2.2422 7.4609 0.87891 0.51172 1.6094-0.66797 0.84375-1.2812z"/>
  <path d="m362 191.78c3.4023 11.781 10.633 21.984 20.246 29.531 1.6172 1.2695 3.3125-1.4102 1.7266-2.6797-9.1641-7.3516-15.883-16.602-20.574-27.344-0.33984-0.77734-1.6406-0.32812-1.3984 0.49219z"/>
  <path d="m362.1 236.1c-0.27344 1.2031-4.2109 2.4922-5.3711 2.8203-1.0938 0.30469-2.2188 0.49219-3.3242 0.75391-1.8164 0.41406-3.6094 0.90625-5.3828 1.4883-3.1289 1.0156-6.1914 2.2539-8.8711 4.1875-5.2812 3.7969-8.4766 9.8672-9.0352 16.309-0.6875 7.9062 3.6641 12.676 6.6172 19.492 1.7617 4.0586 1.6406 7.9844 1.2148 12.281-0.29687 2.9844 0.066407 5.6992 2.3203 7.832 1.6836 1.5977 4.375-0.74219 2.7109-2.4297-2.7109-2.7578-0.73437-8.0391-0.99609-11.516-0.21875-2.9219-0.99609-5.7852-2.2656-8.4219-1.7734-3.6953-4.5703-6.8359-5.5898-10.895-0.96094-3.8516-0.63281-7.9844 0.79688-11.672 3.2695-8.3984 11.234-11.102 19.086-13.738 2.3945-0.80859 10.27-3.3906 8.4453-7.3945-0.15234-0.35156-0.52344-0.4375-0.86328-0.41406-0.12109 0.011719-0.24219 0.023438-0.35938 0.03125-0.35938 0.03125-0.55859 0.41406-0.61328 0.72266-0.023438 0.097656-0.03125 0.19531-0.054688 0.29688-0.09375 0.85547 1.3477 1.1055 1.5352 0.26562z"/>
  <path d="m277.45 262.89c4.8789-6.2227 13.312-4.9336 20.102-3.7852 2.8203 0.46875 5.6562 1.0273 8.5195 1.0938 2.9844 0.066406 5.5664-0.76562 8.4766-1.1797-0.57031-0.1875-1.1367-0.37109-1.707-0.55859 2.3945 2.3203 4.0781 4.8438 7.0234 6.5938 3.6875 2.1758 7.6328 3.2031 10.688 6.4102 1.125 1.1914 3.2031-0.13281 2.418-1.6523-2.9102-5.5469-9.7109-5.8516-14.055-9.8555-1.5078-1.3906-2.5273-4.0039-4.6602-4.4609-0.82031-0.17578-2.1641 0.44922-2.8555 0.60156-1.957 0.42578-3.8945 0.58984-5.8828 0.52344-9.9844-0.33984-22.891-5.3281-29.215 5.5234-0.4375 0.76562 0.60937 1.4219 1.1484 0.74609z"/>
  <path d="m268.73 221.18c3.293-0.66797 6.5742-1.4531 9.6367 0.46094 2.5391 1.5859 4.7461 4.4414 6.2344 6.9883 2.2852 3.9375 2.9531 8.3906 4.5508 12.59 3.2812 8.5977 12.676 10.578 17.816 17.621 1.0625 1.4453 3.0859-0.20703 2.4609-1.6719-1.9453-4.6055-6.6484-6.7578-10.598-9.375-6.125-4.0469-7.1094-9.4492-9.5586-15.871-1.7734-4.625-4.8242-9.1445-8.957-11.988-3.9141-2.6914-7.9297-2.0117-12.109-0.25-0.84375 0.36719-0.32813 1.668 0.52344 1.4961z"/>
  <path d="m300.14 250.1c6.8047-2.2969 12.809-6.4219 19.656-8.5742 8.4766-2.6562 16.254-0.17578 24.324 2.6016 1.957 0.67969 2.9219-2.3828 0.96094-3.0742-7.7227-2.7227-15.816-4.9883-23.965-2.8008-7.7344 2.0781-14.469 6.793-21.426 10.543-0.66797 0.36328-0.32812 1.5664 0.44922 1.3047z"/>
  <path d="m275.05 220c12.719-11.387 20.137-29.793 37.504-35.195-0.50391-0.24219-1.0156-0.48047-1.5195-0.72266 5.207 11.473 15.312 18.91 24.348 27.203 5.3711 4.9336 9.7227 10.336 13.781 16.375 3.3047 4.9102 6.5312 9.9102 11.691 13.047 1.8477 1.1172 3.6758-1.6953 1.8281-2.8203-5.6758-3.4453-8.9141-9.4844-12.566-14.82-3.5547-5.2188-7.6133-9.7227-12.336-13.914-8.9922-7.9727-19.062-15.105-24.281-26.305-0.24219-0.50391-0.96094-0.90625-1.5195-0.72266-17.852 5.7539-25.934 23.953-37.887 36.816-0.62891 0.65625 0.25391 1.6953 0.95703 1.0586z"/>
  <path d="m314.08 187.34c5.2734 7.1875 13.094 11.07 20.824 15.082 8.9453 4.6484 16.023 9.875 21.875 18.199 1.0938 1.5547 3.6953-0.24219 2.7578-1.8828-4.4961-7.7773-11.43-13.223-19.281-17.336-8.7188-4.5625-18.023-7.9062-25.113-15.016-0.66016-0.64062-1.5977 0.22266-1.0625 0.95313z"/>
  <path d="m280.21 213.01c9.1445 4.1797 14.656 10.84 17.215 20.484 1.4531 5.5117 3.7969 11.727 10.215 12.547 1.4648 0.1875 1.8711-2.1758 0.44922-2.5469-8.5977-2.2656-8.0078-14.055-12.141-20.52-3.5547-5.5469-8.8906-9.7461-15.312-11.344-0.91797-0.23047-1.2578 0.99609-0.42578 1.3789z"/>
  <path d="m299.39 234.91c2.0898 2.875 3.4023 5.5547 7.0781 6.6289 3.8047 1.1055 7.0977-1.1172 10.828 0.60156 1.3008 0.60156 2.4492-1.3672 1.5-2.3203-2.1328-2.1328-4.4961-2.0234-7.3164-1.4219-2.3828 0.50391-4.5625 0.61328-6.7148-0.84375-1.6094-1.082-2.6562-2.8203-4.1797-4.0234-0.875-0.69141-1.75 0.61328-1.1953 1.3789z"/>
  <path d="m297.41 227.41c7.9414 2.0781 15.398-0.64453 23.363-0.89844 12.086-0.38281 17.73 8.0938 23.668 17.105 0.90625 1.3789 3.5664 0.83203 2.9844-1.0625-2.7461-8.9375-11.125-17.293-20.453-18.945-9.875-1.7383-19.426 3.4023-29.289 2.2422-0.88672-0.09375-1.1406 1.3281-0.27344 1.5586z"/>
  <path d="m292.84 220.86c2.9961 2.5273 6.9336 1.4102 10.293 0.26172 7.2422-2.4922 13.672-3.0391 19.195 3.2695 0.96094 1.1055 3.0391-0.20703 2.1875-1.4883-2.8672-4.3438-7.832-6.5742-13.004-6.4531-6.5508 0.14062-11.594 4.4727-18.352 3.4219-0.60547-0.09375-0.67969 0.69531-0.32031 0.98828z"/>
  <path d="m338.23 230.76c-0.76562-3.4688-1.6953-5.4141 0.28516-8.8594 1.3438-2.3516 3.1289-4.332 4.0586-6.9141 0.60156-1.6836-2.1094-3.0391-2.9219-1.3672-1.7266 3.5977-4.7578 6.9023-5.3359 10.949-0.35938 2.5273 0.29688 5.7188 2.6797 7.043 0.61328 0.32031 1.3984-0.14062 1.2344-0.85156z"/>
  <path d="m287.86 215.16c-0.28516-2.1875 2.5586-4.2656 4.3633-4.6914 1.0508-0.25 2.2969-0.17578 3.3789-0.042968 2.4922 0.29687 5.2383 1.3672 7.3398 2.6484 3.2578 1.9922 5.7188 5.3477 9.5586 6.2031 1.7383 0.38281 2.8125-1.75 1.3359-2.8438-5.4688-4.0234-11.016-8.5859-18.102-8.9922-4.375-0.25-10.402 2.0352-10.172 7.2969 0.023438 0.46094 0.27344 1.0273 0.78906 1.125 0.20703 0.042968 0.40625 0.078124 0.61328 0.12109 0.52344 0.10547 0.96094-0.26953 0.89453-0.82422z"/>
  <path d="m286.63 214.71c2.4922-7.4492 9.4062-13.824 17.543-9.4922 6.0039 3.2031 7.7227 10.051 12.719 14.164 1.3438 1.1055 2.875-0.99609 1.8906-2.2188-5.4258-6.8047-9.5156-16.758-19.766-16.582-7.5898 0.13281-13.738 6.3125-14.207 13.805-0.0625 1.0664 1.4922 1.3203 1.8203 0.32422z"/>
  <path d="m313.6 210.79c0.32813-0.15234 3.0859 0.77734 3.6406 0.79688 2.1875 0.12109 4.6172 0.52344 6.793 0.46094 1.9375-0.054687 3.6328-0.71094 5.6094-0.35156 3.3047 0.60156 6.0703 2.4297 7.7539 5.3594 1.1719 2.0469 4.332 0.46094 3.2695-1.6641-2.1328-4.2422-6.082-6.5078-10.707-7.2852-5.0078-0.84375-10.742 2.0234-15.672 0.19531-0.73437-0.27344-1.3672 0.33984-1.4531 1.0156-0.03125 0.29688-0.078126 0.58984-0.10938 0.88672-0.078124 0.48438 0.48047 0.76953 0.875 0.58594z"/>
  <path d="m312.17 210.49c0.50391-0.71094 3.0078-0.085938 3.8281-0.10938 1.5312-0.054687 3.0391-0.32812 4.5156-0.71094 3.2266-0.85156 6.2461-2.3516 9.5156-3.0312 1.8594-0.38281 1.707-3.5664-0.28516-3.4023-3.8047 0.30469-7.2422 2.4297-10.871 3.457-2.832 0.79688-6.4297 0.20703-8.0508 2.9297-0.53516 0.89062 0.74609 1.7109 1.3477 0.86719z"/>
  <path d="m315.49 210.66c-0.31641 0.40625-0.625 0.82031-0.94141 1.2266-0.37109 0.48047-0.066406 1.3359 0.52344 1.4648 8.0938 1.793 13.805 4.6484 18.453 11.648 1.1055 1.6719 3.4883 0.48047 2.7773-1.4102-2.9297-7.6992-13.016-13.18-21.141-12.129 0.38281 0.41406 0.76563 0.83203 1.1367 1.2461 0.14062-0.49219 0.28516-0.98438 0.42578-1.4648 0.24219-0.77734-0.76562-1.1953-1.2344-0.58203z"/>
  <path d="m305.91 205.24c5.8398-3.9141 12.547-4.1133 17.859 0.71094 1.6094 1.4531 4.0898-0.61328 2.5703-2.2969-2.6562-2.9414-6.5938-4.5625-10.543-4.582-4.3984-0.023438-7.5469 2.1445-10.719 4.9336-0.63281 0.54688 0.10938 1.7148 0.83203 1.2344z"/>
  <path d="m242.91 300.2c-11.801-8.3555-8.9922-23.887-5.457-35.777 3.6211-12.172 8.7188-23.91 15.344-34.758 6.4414-10.543 14.352-20.266 23.703-28.359 7.3711-6.375 17.391-14.918 27.836-13.594 2.1641 0.27344 2.3398-3.1836 0.15234-3.4141-10.883-1.1602-21.023 7.1641-28.734 13.812-10.75 9.2734-19.773 20.477-26.875 32.758-7.043 12.184-12.523 25.57-15.727 39.297-2.6367 11.277-2.3086 24.961 8.6523 31.742 1.1172 0.67578 2.168-0.95312 1.1055-1.707z"/>
  <path d="m315.82 188.43c5.6758 0.29687 9.4062-6.6055 15.125-4.7695 7.8867 2.5391 9.7109 12.895 10.477 19.883 0.25 2.3086 3.7852 1.5312 3.5312-0.76562-0.86328-7.875-3.2148-16.922-10.652-21.121-7.832-4.4297-11.727 3.1836-18.625 5.0742-0.91797 0.25781-0.86328 1.6445 0.14453 1.6992z"/>
  <path d="m266.92 206.07c-16.09-2.3828-31.688 6.7383-42 18.473-6.2461 7.0977-11.035 15.312-14.941 23.898-3.707 8.1367-6.3984 16.625-6.0391 25.66 0.37109 9.3633 1.9688 18.715 2.5938 28.078 0.55859 8.2695 1.2031 16.637 3.6641 24.598 4.8125 15.574 16.09 29.051 30.887 36.027 16.254 7.668 37.219 6.0586 47.863-9.8867 1.3125-1.9688-1.75-3.9375-3.0859-1.9922-9.5391 13.957-27.859 15.215-42.305 8.8477-14.359-6.3203-25.648-19.445-30.09-34.453-4.2344-14.328-3.6523-29.938-5.457-44.691-1.0938-8.9141-0.33984-17.039 2.8672-25.461 2.9531-7.7773 6.8906-15.312 11.68-22.117 10.469-14.863 25.844-24.75 44.285-25.09 1.2266-0.03125 1.2695-1.7148 0.078125-1.8906z"/>
  <path d="m338.92 363.19c6.5625 19.5 28.23 26.656 46.77 29.008 20.465 2.5938 39.562-5.8398 53.156-21.207 7.1406-8.0703 8.7383-17.676 10.84-27.879 2.4492-11.91 8.5977-21.086 15.465-30.875 5.5469-7.8984 12.141-17.281 12.25-27.344 0.10938-9.6562-7.5234-14.34-15.969-16.594-20.594-5.4922-42.809-2.8438-61.699 6.9141-2.1758 1.125-0.46094 4.5156 1.7188 3.3906 15.215-7.7969 32.57-10.914 49.535-8.6719 8.8477 1.1719 22.938 3.3906 22.926 14.809-0.011718 9.6797-6.7148 18.758-12 26.359-5.2617 7.5586-10.773 15.16-13.52 24.074-2.5469 8.2578-2.7656 17.148-6.1914 25.145-3.8945 9.0898-12.602 16.219-20.793 21.395-7.9297 5.0078-16.82 8.1914-26.25 8.3359-20.66 0.32812-45.871-6.8242-54.578-27.422-0.38281-0.94922-1.9805-0.40234-1.6602 0.5625z"/>
  <path d="m233.46 218.98c-4.7148-6.7578-5.2383-15.18-5.0859-23.164 0.16406-8.3672 1.5195-16.93 6.0156-24.148 4.6172-7.4062 11.57-9.9648 18.734-14.141 3.0078-1.75 5.8398-3.8047 8.4336-6.1367 2.7891-2.5039 4.7461-5.9375 7.4688-8.3789 1.5-1.3359 1.7188-0.875 3.0859 0.20703 1.2031 0.95312 2.5156 1.7266 3.9141 2.3516 3.1172 1.3906 6.5938 1.957 9.9961 2 7.3711 0.097657 14.371-2.4375 21.492-3.9141 15.859-3.2812 31.543 2.7656 42.906 13.945 6.3555 6.2656 11.344 13.758 15.27 21.754 3.8594 7.8516 8.0703 17.816 3.7617 26.328-1.1602 2.2969 2.1641 4.5156 3.4141 2.1992 7.5781-14.164-3.293-32.387-11.605-43.793-9.8555-13.539-24.797-24.051-41.902-25.059-8.6836-0.51562-16.648 2.3945-25.016 4.125-4.8008 0.99609-9.9102 1.4766-14.688 0.078125-2.7344-0.79688-4.4609-2.2422-6.793-3.8047-0.88672-0.58984-1.4883-1.2461-2.668-1.2344-2.7891 0.011719-4.375 3.7422-5.7969 5.5234-3.5117 4.3984-7.832 8.1914-12.656 11.113-7.0781 4.2891-14.023 6.9883-18.812 14.152-5.3906 8.0703-6.9336 17.949-6.9453 27.477-0.011719 8.3359 0.72266 17.031 6.082 23.766 0.76172 0.95313 2.0625-0.29687 1.3945-1.2461z"/>
  <path d="m363.64 167.54c1.9805-1.3555 3.3672-5.2188 4.8984-7.1641 2.0117-2.5586 4.3984-4.8359 7.0234-6.7383 4.8789-3.5312 10.621-5.6641 16.602-6.2461 5.5352-0.53516 10.852 0.37109 16.055 2.2422 4.7031 1.6953 8.9922 3.3125 14.066 2.8008-0.65625-0.31641-1.3125-0.625-1.9688-0.94141 2.418 4.9453 5.3828 9.4297 9.3398 13.277 4.1445 4.0234 8.9258 7.3398 13.059 11.375 7.7969 7.6328 13.168 17.586 15.27 28.305 4.3086 21.961-6.0156 43.543-17.391 61.664-1.3438 2.1445 1.957 4.2891 3.3125 2.1328 11.527-18.309 21.523-39.68 18.211-61.883-1.5312-10.27-5.9375-20.082-12.512-28.098-3.5977-4.3867-7.9414-7.8984-12.281-11.508-5.8633-4.8789-10.445-9.9766-13.824-16.867-0.38281-0.77734-1.1719-1.0156-1.9688-0.94141-6.9883 0.71094-13.539-3.6211-20.398-4.4961-5.7969-0.74219-11.781-0.078125-17.281 1.8906-5.9492 2.1328-11.234 5.8281-15.336 10.633-1.8906 2.2188-7.8086 8.9688-5.3594 11.922 0.26172 0.32812 0.75391 0.30469 1.0625 0.054687 0.085938-0.066406 0.16406-0.13281 0.25-0.20703 0.63672-0.51562-0.12891-1.6758-0.82812-1.207z"/>
  <path d="m208.34 318.02c-8.3242-2.5391-16.383 1.3242-22.258 7.2305-6.8242 6.8594-13.574 16.266-14.109 26.207-0.50391 9.2852 1.8906 20.594 6.8906 28.504 2.2852 3.6094 5.3281 6.4844 9.1758 8.3359 5.4805 2.6367 13.07 3.3125 15.555 9.7344 1.543 3.9805 2.3516 4.5391 6.8477 4.7891 5.207 0.29688 10.215 1.5 15.105 3.293 9.4297 3.4766 18.07 8.7383 27.258 12.742 8.5742 3.7422 17.598 6.125 27.016 5.3594 9.5703-0.78906 18.703-4.2891 27.027-8.9688 18.945-10.652 39.691-29.094 35.559-53.145-0.40625-2.3828-4.0781-1.5859-3.6641 0.78906 3.6211 20.867-13.988 37.023-30.047 46.988-15.117 9.375-31.883 13.879-49.121 7.7656-15.215-5.4023-28.656-15.871-44.977-18.07-1.6719-0.23047-3.7422 0.054687-5.3359-0.37109-2.5039-0.66797-2.1758-2.7031-3.2812-4.6055-1.4883-2.582-4.1016-4.418-6.7266-5.6875-4.7148-2.2852-10.148-2.9648-14.152-6.6055-3.7969-3.4336-5.9844-8.3242-7.4375-13.137-1.5547-5.1289-2.7773-10.742-2.8203-16.109-0.054688-6.1133 2.1445-11.199 5.4258-16.254 6.0469-9.3086 15.082-20.125 27.574-17.094 1.0547 0.23437 1.582-1.3633 0.49609-1.6914z"/>
  <path d="m189.73 322.93c-8.9375-9.1016-15.477-20.355-18.812-32.691-3.4453-12.766-4.8359-28.523 5.25-38.598 4.5391-4.5391 9.2852-8.4453 12.82-13.879 3.5977-5.5352 5.918-11.703 8.3242-17.805 2.8867-7.3281 6.1797-14.055 12.109-19.414 5.6641-5.1406 12.055-9.4492 18.168-14.023 1.543-1.1602-0.30469-3.9141-1.9258-2.8203-6.4102 4.3203-12.828 9.0352-18.562 14.242-5.5117 5.0195-9.0117 11.102-11.836 17.938-3.2148 7.7773-5.7969 15.781-10.883 22.617-4.418 5.9375-11.035 9.9844-14.906 16.34-6.4648 10.621-4.168 25.953-0.72266 37.242 3.7188 12.184 10.652 23.102 20.039 31.707 0.58594 0.53516 1.5273-0.26562 0.9375-0.85547z"/>
  <path d="m329.52 396.91c0.054687 10.871 0.38281 21.93 1.2695 32.758 0.71094 8.6406 5.7656 14.438 13.289 18.375 16 8.3789 32.473 3.0195 48.703-1.3906 8.4766-2.3086 16.996-3.9609 25.801-2.7656 9.2734 1.2578 17.652 3.3125 26.852 0.27344 16.789-5.5469 31.914-18.836 30.176-37.766-1.8477-20.156-14.328-37.418-26.512-52.797-1.4883-1.8828-4.168 0.57812-2.7578 2.4609 9.7578 12.949 20.027 26.391 24.051 42.395 2.2422 8.9453 2.6562 18.254-2.8203 26.152-5 7.207-13.234 12.383-21.297 15.543-8.6172 3.3906-16.594 2.0664-25.441 0.72266-7.25-1.1055-14.242-0.6875-21.383 0.90625-14.559 3.2578-29.301 10.578-44.539 7.3828-4.8789-1.0156-9.6367-3.0195-13.684-5.918-5.2812-3.7852-7.5898-8.5859-8.0273-14.984-0.72266-10.5-0.86328-21.031-1.793-31.523-0.10156-1.0469-1.8867-0.88281-1.8867 0.17578z"/>
  <path d="m446.45 355.47c6.9453 3.3047 14.602 2.1758 21.918 0.86328 8.1914-1.4648 16.219-3.8281 23.965-6.8906 15.555-6.1562 31.379-15.598 39.879-30.547 3.4688-6.1016 5.9727-13.422 4.5625-20.496-1.5312-7.625-7.7344-11.781-13.703-15.926-3.2031-2.2305-6.5508-4.7695-8.2812-8.3789-1.7734-3.7188-0.64453-7.6875 0.011719-11.527 1.0625-6.2461 0.054687-11.102-5.5469-14.688-14.887-9.5586-34.562-11.824-51.547-7.7773-2.6914 0.64453-1.793 4.8438 0.90625 4.2109 14.285-3.3477 29.41-2.1641 42.809 3.9609 3.0938 1.4102 7.7891 3.293 9.2852 6.5859 1.3672 2.9844 0.21875 6.6953-0.30469 9.7461-0.84375 4.8984-0.73438 9.3281 2.2109 13.539 3.7188 5.3359 9.7344 8.0273 14.613 12.074 6.7148 5.5781 7.3047 13.484 4.4062 21.328-5.5117 14.898-19.578 24.926-33.305 31.652-7.9062 3.8711-16.211 6.9219-24.762 9.0352-8.1602 2.0117-18.125 4.6719-26.152 1.1797-1.1719-0.52734-2.1328 1.4961-0.96484 2.0547z"/>
  <use x="70" y="576.40625" xlink:href="#g"/>
  <use x="74.011719" y="576.40625" xlink:href="#b"/>
  <use x="76.710938" y="576.40625" xlink:href="#a"/>
  <use x="80.417969" y="576.40625" xlink:href="#d"/>
  <use x="84.109375" y="576.40625" xlink:href="#c"/>
  <use x="86.722656" y="576.40625" xlink:href="#a"/>
  <use x="90.433594" y="576.40625" xlink:href="#k"/>
  <use x="96.25" y="576.40625" xlink:href="#j"/>
  <use x="100.167969" y="576.40625" xlink:href="#i"/>
  <use x="105.636719" y="576.40625" xlink:href="#h"/>
  <use x="111.078125" y="576.40625" xlink:href="#d"/>
  <use x="114.765625" y="576.40625" xlink:href="#c"/>
  <use x="117.382812" y="576.40625" xlink:href="#f"/>
  <use x="121.160156" y="576.40625" xlink:href="#g"/>
  <use x="125.171875" y="576.40625" xlink:href="#d"/>
  <use x="128.863281" y="576.40625" xlink:href="#b"/>
  <use x="131.5625" y="576.40625" xlink:href="#b"/>
  <use x="134.257812" y="576.40625" xlink:href="#f"/>
  <use x="136.132812" y="576.40625" xlink:href="#w"/>
  <use x="139.316406" y="576.40625" xlink:href="#d"/>
  <use x="143.003906" y="576.40625" xlink:href="#v"/>
  <use x="144.878906" y="576.40625" xlink:href="#a"/>
  <use x="148.589844" y="576.40625" xlink:href="#u"/>
  <use x="70" y="581.875" xlink:href="#t"/>
  <use x="72.378906" y="581.875" xlink:href="#b"/>
  <use x="75.078125" y="581.875" xlink:href="#e"/>
  <use x="78.832031" y="581.875" xlink:href="#s"/>
  <use x="86.4375" y="581.875" xlink:href="#c"/>
  <use x="89.050781" y="581.875" xlink:href="#r"/>
  <use x="92.941406" y="581.875" xlink:href="#a"/>
  <use x="98.554688" y="581.875" xlink:href="#q"/>
  <use x="103.132812" y="581.875" xlink:href="#e"/>
  <use x="106.890625" y="581.875" xlink:href="#p"/>
  <use x="110.785156" y="581.875" xlink:href="#o"/>
  <use x="116.582031" y="581.875" xlink:href="#n"/>
  <use x="120.589844" y="581.875" xlink:href="#b"/>
  <use x="123.285156" y="581.875" xlink:href="#e"/>
  <use x="127.042969" y="581.875" xlink:href="#m"/>
  <use x="128.917969" y="581.875" xlink:href="#a"/>
  <use x="132.625" y="581.875" xlink:href="#l"/>
  <use x="135.867188" y="581.875" xlink:href="#c"/>
 </g>
</svg>
